<svg width="27" height="27" viewBox="0 0 27 27" fill="none" xmlns="http://www.w3.org/2000/svg">
<path fill-rule="evenodd" clip-rule="evenodd" d="M10.8625 3.64483C10.9259 3.92496 10.8755 4.21881 10.7223 4.46177C10.5692 4.70474 10.3258 4.87693 10.0457 4.9405C9.83311 4.98887 9.62243 5.04524 9.41411 5.1095C9.27817 5.15146 9.1353 5.16625 8.99365 5.153C8.85201 5.13976 8.71435 5.09874 8.58856 5.0323C8.46276 4.96585 8.35128 4.87528 8.26049 4.76575C8.1697 4.65623 8.10137 4.52989 8.0594 4.39395C8.01743 4.25802 8.00265 4.11515 8.01589 3.9735C8.02914 3.83185 8.07015 3.6942 8.1366 3.56841C8.20304 3.44261 8.29361 3.33113 8.40314 3.24034C8.51267 3.14955 8.639 3.08121 8.77494 3.03925C9.03494 2.95836 9.29855 2.88794 9.56577 2.828C9.70455 2.79644 9.8482 2.79253 9.98849 2.81651C10.1288 2.84048 10.263 2.89186 10.3834 2.96772C10.5038 3.04358 10.6081 3.14242 10.6903 3.2586C10.7725 3.37478 10.8311 3.50603 10.8625 3.64483ZM13.0834 3.64483C13.1469 3.36473 13.3191 3.12135 13.5621 2.96817C13.805 2.815 14.0989 2.76458 14.379 2.828C19.2042 3.92216 22.8074 8.236 22.8074 13.3927C22.8074 19.3759 17.9562 24.226 11.974 24.226C6.81627 24.226 2.50244 20.6239 1.40827 15.7987C1.35211 15.5214 1.4067 15.2331 1.56037 14.9955C1.71404 14.7578 1.95459 14.5898 2.23058 14.5272C2.50656 14.4647 2.79606 14.5126 3.03717 14.6607C3.27828 14.8089 3.45186 15.0455 3.52077 15.3199C3.86551 16.8298 4.60855 18.2198 5.6726 19.3451C6.73664 20.4705 8.08282 21.2902 9.57106 21.7189C11.0593 22.1476 12.6352 22.1696 14.1349 21.7827C15.6345 21.3959 17.0031 20.6142 18.0983 19.5191C19.1934 18.4239 19.9751 17.0554 20.3619 15.5557C20.7488 14.056 20.7267 12.4801 20.298 10.9919C19.8693 9.50363 19.0497 8.15745 17.9243 7.0934C16.7989 6.02936 15.409 5.28631 13.8991 4.94158C13.619 4.87778 13.3757 4.70533 13.2227 4.46214C13.0697 4.21896 13.0196 3.92496 13.0834 3.64483ZM6.13811 5.506C6.23499 5.61031 6.31036 5.7327 6.35992 5.86616C6.40947 5.99963 6.43223 6.14155 6.4269 6.28381C6.42157 6.42608 6.38824 6.5659 6.32884 6.69528C6.26943 6.82466 6.18511 6.94106 6.08069 7.03783C5.92036 7.18589 5.76616 7.33972 5.61811 7.49933C5.42131 7.7041 5.15197 7.8234 4.86807 7.83155C4.58418 7.83969 4.30845 7.73602 4.10023 7.54286C3.89202 7.34971 3.76799 7.08251 3.75484 6.79881C3.7417 6.5151 3.84048 6.23758 4.02994 6.026C4.21411 5.82666 4.40622 5.63419 4.60627 5.44858C4.71059 5.3517 4.83297 5.27632 4.96644 5.22677C5.0999 5.17722 5.24182 5.15446 5.38409 5.15979C5.52636 5.16512 5.66618 5.19844 5.79556 5.25785C5.92493 5.31725 6.04134 5.40158 6.13811 5.506ZM11.9729 6.89266C12.2603 6.89266 12.5358 7.0068 12.739 7.20996C12.9421 7.41313 13.0563 7.68868 13.0563 7.976V12.9442L15.9889 15.8767C16.1862 16.0811 16.2954 16.3547 16.2929 16.6388C16.2905 16.9228 16.1765 17.1945 15.9757 17.3954C15.7748 17.5962 15.5031 17.7102 15.219 17.7126C14.935 17.7151 14.6613 17.6059 14.457 17.4086L11.207 14.1586C11.0038 13.9555 10.8897 13.68 10.8896 13.3927V7.976C10.8896 7.68868 11.0037 7.41313 11.2069 7.20996C11.4101 7.0068 11.6856 6.89266 11.9729 6.89266ZM2.97369 9.47966C3.2482 9.56431 3.47784 9.75453 3.61213 10.0085C3.74642 10.2624 3.77434 10.5593 3.68977 10.8338C3.62552 11.0422 3.56914 11.2528 3.52077 11.4654C3.45186 11.7399 3.27828 11.9765 3.03717 12.1246C2.79606 12.2728 2.50656 12.3207 2.23058 12.2581C1.95459 12.1956 1.71404 12.0275 1.56037 11.7899C1.4067 11.5523 1.35211 11.2639 1.40827 10.9866C1.46894 10.7194 1.53936 10.4557 1.61952 10.1957C1.70417 9.92124 1.89439 9.69159 2.14833 9.5573C2.40227 9.42302 2.69916 9.39509 2.97369 9.47966Z" fill="#0568A3"/>
</svg>
