<svg width="13" height="23" viewBox="0 0 13 23" fill="none" xmlns="http://www.w3.org/2000/svg">
<path d="M12.3393 21.0763C12.4313 21.1683 12.5043 21.2776 12.5541 21.3978C12.6039 21.518 12.6295 21.6468 12.6295 21.7769C12.6295 21.907 12.6039 22.0359 12.5541 22.1561C12.5043 22.2763 12.4313 22.3855 12.3393 22.4775C12.2473 22.5695 12.1381 22.6425 12.0179 22.6923C11.8977 22.7421 11.7688 22.7677 11.6387 22.7677C11.5086 22.7677 11.3798 22.7421 11.2596 22.6923C11.1394 22.6425 11.0301 22.5695 10.9381 22.4775L1.03578 12.5752C0.943715 12.4832 0.870677 12.374 0.820844 12.2538C0.771011 12.1336 0.745361 12.0047 0.745361 11.8746C0.745361 11.7444 0.771011 11.6156 0.820844 11.4954C0.870677 11.3752 0.943715 11.2659 1.03578 11.174L10.9381 1.27164C11.1239 1.08583 11.3759 0.981445 11.6387 0.981445C11.9015 0.981445 12.1535 1.08583 12.3393 1.27164C12.5251 1.45745 12.6295 1.70946 12.6295 1.97223C12.6295 2.235 12.5251 2.48701 12.3393 2.67282L3.13632 11.8746L12.3393 21.0763Z" fill="white"/>
</svg>
