<svg width="70" height="43" viewBox="0 0 70 43" fill="none" xmlns="http://www.w3.org/2000/svg">
<g clip-path="url(#clip0_78_2020)">
<path d="M57.5845 0.000141144C57.5845 0.994518 57.6634 1.82764 57.5487 2.6321C57.5003 2.97431 57.1008 3.3416 56.7729 3.54764C55.1837 4.55635 53.4583 5.3626 51.9766 6.52002C47.1821 10.2682 44.3405 15.2024 44.1847 21.613C44.1417 23.4316 44.8117 23.8884 46.3382 23.1771C50.7511 21.1311 55.4972 22.3315 58.0289 26.1334C60.7898 30.2829 60.401 35.8084 57.0918 39.4311C52.8671 44.0572 45.9118 44.197 41.1155 39.7751C38.2435 37.1271 36.8782 33.7086 36.5378 29.8189C35.3965 16.7916 41.9307 6.05239 53.8256 1.33493C55.0027 0.869102 56.2085 0.485683 57.5845 0.000141144Z" fill="white" fill-opacity="0.26"/>
</g>
<g clip-path="url(#clip1_78_2020)">
<path d="M31.4476 0.000141144C31.4476 0.994518 31.5264 1.82764 31.4117 2.6321C31.3634 2.97431 30.9638 3.3416 30.6359 3.54764C29.0467 4.55635 27.3214 5.3626 25.8397 6.52002C21.0452 10.2682 18.2036 15.2024 18.0477 21.613C18.0047 23.4316 18.6748 23.8884 20.2013 23.1771C24.6142 21.1311 29.3603 22.3315 31.8919 26.1334C34.6529 30.2829 34.2641 35.8084 30.9549 39.4311C26.7301 44.0572 19.7749 44.197 14.9786 39.7751C12.1065 37.1271 10.7413 33.7086 10.4009 29.8189C9.25957 16.7916 15.7938 6.05239 27.6887 1.33493C28.8658 0.869102 30.0716 0.485683 31.4476 0.000141144Z" fill="white" fill-opacity="0.26"/>
</g>
<defs>
<clipPath id="clip0_78_2020">
<rect width="43" height="43" fill="white" transform="matrix(-1 0 0 -1 69.6372 43)"/>
</clipPath>
<clipPath id="clip1_78_2020">
<rect width="43" height="43" fill="white" transform="matrix(-1 0 0 -1 43.4998 43)"/>
</clipPath>
</defs>
</svg>
