<svg width="27" height="27" viewBox="0 0 27 27" fill="none" xmlns="http://www.w3.org/2000/svg">
<path d="M5.47254 9.05952L11.9725 12.3095L18.4725 9.05952L11.9725 5.80952L5.47254 9.05952ZM12.5023 3.76852L21.1614 8.18418C21.6879 8.45285 21.8775 9.06168 21.585 9.54593C21.483 9.71228 21.3367 9.84695 21.1625 9.93485L12.5023 14.3505C12.3379 14.433 12.1565 14.476 11.9725 14.476C11.7886 14.476 11.6072 14.433 11.4428 14.3505L2.7837 9.93485C2.2572 9.66618 2.06762 9.05735 2.36012 8.5731C2.46211 8.40675 2.60841 8.27208 2.78262 8.18418L11.4428 3.76852C11.7721 3.6006 12.173 3.6006 12.5023 3.76852ZM12.5023 18.6817C12.3384 18.7659 12.1568 18.8098 11.9725 18.8098C11.7883 18.8098 11.6067 18.7659 11.4428 18.6817L2.7837 14.1891C2.2572 13.9161 2.06762 13.2964 2.36012 12.8046C2.46249 12.6369 2.60854 12.5002 2.78262 12.4092C2.90898 12.3437 3.04924 12.3094 3.19158 12.3094C3.33392 12.3094 3.47418 12.3437 3.60054 12.4092L11.4439 16.4771C11.7721 16.6483 12.173 16.6483 12.5023 16.4771L20.3445 12.4092C20.4708 12.3438 20.6108 12.3097 20.753 12.3097C20.8951 12.3097 21.0351 12.3438 21.1614 12.4092C21.6879 12.6822 21.8775 13.3018 21.585 13.7937C21.4826 13.9614 21.3365 14.098 21.1625 14.1891L12.5023 18.6817ZM12.5023 23.015C12.3384 23.0992 12.1568 23.1431 11.9725 23.1431C11.7883 23.1431 11.6067 23.0992 11.4428 23.015L2.7837 18.5224C2.2572 18.2494 2.06762 17.6298 2.36012 17.1379C2.46249 16.9703 2.60854 16.8336 2.78262 16.7425C2.90898 16.677 3.04924 16.6428 3.19158 16.6428C3.33392 16.6428 3.47418 16.677 3.60054 16.7425L11.4439 20.8104C11.7721 20.9816 12.173 20.9816 12.5023 20.8104L20.3445 16.7425C20.4708 16.6772 20.6108 16.6431 20.753 16.6431C20.8951 16.6431 21.0351 16.6772 21.1614 16.7425C21.6879 17.0155 21.8775 17.6352 21.585 18.127C21.4826 18.2947 21.3365 18.4314 21.1625 18.5224L12.5023 23.015Z" fill="#0568A3"/>
</svg>
