<svg width="13" height="23" viewBox="0 0 13 23" fill="none" xmlns="http://www.w3.org/2000/svg">
<path d="M0.973192 2.67269C0.881189 2.58069 0.808209 2.47147 0.758418 2.35126C0.708627 2.23105 0.682998 2.10221 0.682998 1.9721C0.682998 1.84199 0.708627 1.71315 0.758418 1.59295C0.808209 1.47274 0.881189 1.36351 0.973192 1.27151C1.0652 1.17951 1.17442 1.10653 1.29463 1.05674C1.41483 1.00695 1.54367 0.981317 1.67378 0.981317C1.80389 0.981317 1.93273 1.00695 2.05294 1.05674C2.17315 1.10653 2.28237 1.17951 2.37437 1.27151L12.2767 11.1739C12.3688 11.2658 12.4418 11.375 12.4917 11.4952C12.5415 11.6155 12.5671 11.7443 12.5671 11.8744C12.5671 12.0046 12.5415 12.1334 12.4917 12.2536C12.4418 12.3739 12.3688 12.4831 12.2767 12.575L2.37437 22.4774C2.18856 22.6632 1.93655 22.7676 1.67378 22.7676C1.41101 22.7676 1.159 22.6632 0.97319 22.4774C0.787382 22.2916 0.682996 22.0396 0.682996 21.7768C0.682996 21.514 0.787382 21.262 0.97319 21.0762L10.1762 11.8744L0.973192 2.67269Z" fill="#0568A3"/>
</svg>
