<svg width="17" height="17" viewBox="0 0 17 17" fill="none" xmlns="http://www.w3.org/2000/svg">
<path d="M8.90625 5.651V14.9843" stroke="#0568A3" stroke-width="1.33333" stroke-linecap="round" stroke-linejoin="round"/>
<path d="M2.90495 12.9844C2.72814 12.9844 2.55857 12.9141 2.43354 12.7891C2.30852 12.6641 2.23828 12.4945 2.23828 12.3177V3.65104C2.23828 3.47423 2.30852 3.30466 2.43354 3.17964C2.55857 3.05461 2.72814 2.98438 2.90495 2.98438H6.23828C6.94553 2.98438 7.6238 3.26533 8.1239 3.76542C8.624 4.26552 8.90495 4.9438 8.90495 5.65104C8.90495 4.9438 9.1859 4.26552 9.686 3.76542C10.1861 3.26533 10.8644 2.98438 11.5716 2.98438H14.9049C15.0818 2.98438 15.2513 3.05461 15.3764 3.17964C15.5014 3.30466 15.5716 3.47423 15.5716 3.65104V12.3177C15.5716 12.4945 15.5014 12.6641 15.3764 12.7891C15.2513 12.9141 15.0818 12.9844 14.9049 12.9844H10.9049C10.3745 12.9844 9.86581 13.1951 9.49073 13.5702C9.11566 13.9452 8.90495 14.4539 8.90495 14.9844C8.90495 14.4539 8.69423 13.9452 8.31916 13.5702C7.94409 13.1951 7.43538 12.9844 6.90495 12.9844H2.90495Z" stroke="#0568A3" stroke-width="1.33333" stroke-linecap="round" stroke-linejoin="round"/>
</svg>
