<svg width="40" height="29" viewBox="0 0 40 29" fill="none" xmlns="http://www.w3.org/2000/svg">
<path d="M36.7437 1.03008C36.4887 0.632717 36.0478 0.392578 35.5759 0.392578H25.9228C23.6252 0.392578 21.7562 2.26161 21.7562 4.55924V14.2815C21.7562 16.5791 23.6252 18.4481 25.9228 18.4481H28.6803C27.3905 22.1835 26.2891 23.9724 22.6242 25.4997C22.0126 25.7547 21.6666 26.4056 21.7969 27.0553C21.927 27.7038 22.4967 28.1703 23.1587 28.1703H23.1615C30.8071 28.1567 35.1989 25.0915 38.3131 17.5991C39.3071 15.2458 39.8117 12.7272 39.8117 10.1148C39.8117 6.0973 38.5964 3.90952 36.7437 1.03008ZM14.7426 0.392578H5.08952C2.79188 0.392578 0.922852 2.26161 0.922852 4.55924V14.2815C0.922852 16.5791 2.79188 18.4481 5.08952 18.4481H7.84702C6.55716 22.1835 5.45577 23.9724 1.79091 25.4997C1.17924 25.7547 0.833268 26.4056 0.963546 27.0553C1.09368 27.7038 1.66341 28.1703 2.32535 28.1703H2.32813C9.97382 28.1567 14.3656 25.0915 17.4798 17.5991C18.4738 15.2458 18.9784 12.7272 18.9784 10.1148C18.9784 6.0973 17.7631 3.90952 15.9103 1.03008C15.6553 0.632717 15.2145 0.392578 14.7426 0.392578Z" fill="#0568A3"/>
</svg>
