<svg width="35" height="35" viewBox="0 0 35 35" fill="none" xmlns="http://www.w3.org/2000/svg">
<g clip-path="url(#clip0_338_4970)">
<path d="M6.8501 0C3.39026 0 0.585938 2.81567 0.585938 6.28904V27.6838C0.585938 31.1571 3.39094 33.9728 6.85078 33.9728H28.3211C31.7809 33.9728 34.5859 31.1571 34.5859 27.6838V6.28904C34.5859 2.81567 31.7809 0 28.3211 0H6.8501Z" fill="#14A800"/>
<path d="M24.896 20.0002C22.7805 20.0002 21.381 18.3689 20.9894 17.7342C21.4898 13.7248 22.9566 12.461 24.896 12.461C26.8122 12.461 28.3048 13.9918 28.3048 16.2306C28.3048 18.4694 26.8122 20.0002 24.896 20.0002ZM24.896 10C21.4477 10 19.5151 12.247 18.963 14.5605C18.3346 13.3823 17.8722 11.806 17.5078 10.3411H12.7416V16.2687C12.7416 18.4225 11.7638 20.0104 9.84552 20.0104C7.92724 20.0104 6.82836 18.4225 6.82836 16.2693L6.84876 10.3411H4.10156V16.2687C4.10156 17.9992 4.66324 19.5681 5.68324 20.6878C6.73588 21.8416 8.17476 22.451 9.84416 22.451C13.1612 22.451 15.4752 19.9092 15.4752 16.2707V12.2877C15.8248 13.5984 16.6448 16.1192 18.2231 18.3295L16.7489 26.7167H19.5423L20.5154 20.7701C20.835 21.0344 21.1736 21.2735 21.5286 21.4869C22.4598 22.0782 23.5328 22.4088 24.6355 22.4442H24.641C24.7232 22.4442 24.8069 22.449 24.8919 22.449C28.3116 22.449 31.035 19.8032 31.035 16.2367C31.0357 12.6682 28.315 10 24.896 10Z" fill="white"/>
</g>
<defs>
<clipPath id="clip0_338_4970">
<rect width="34" height="34" fill="white" transform="translate(0.585938 0.28125)"/>
</clipPath>
</defs>
</svg>
