<svg width="35" height="35" viewBox="0 0 35 35" fill="none" xmlns="http://www.w3.org/2000/svg">
<g clip-path="url(#clip0_72_34)">
<rect x="0.484375" y="0.28125" width="34" height="34" rx="6" fill="#00B22D"/>
<path d="M15.4844 34.2812C24.8732 34.2812 32.4844 26.6701 32.4844 17.2812C32.4844 7.89241 24.8732 0.28125 15.4844 0.28125C6.09553 0.28125 -1.51562 7.89241 -1.51562 17.2812C-1.51562 26.6701 6.09553 34.2812 15.4844 34.2812Z" fill="#00B22D"/>
<path d="M29.4584 14.1108C29.4584 13.5498 29.0164 13.0908 28.4554 13.0908C27.9114 13.0908 27.4609 13.5413 27.4609 14.1108C27.4609 14.6718 27.9029 15.1308 28.4554 15.1308C29.0164 15.1393 29.4584 14.6803 29.4584 14.1108ZM28.4554 14.8503C28.0729 14.8503 27.7754 14.5273 27.7754 14.1108C27.7754 13.7028 28.0729 13.3798 28.4554 13.3798C28.8464 13.3798 29.1524 13.7028 29.1524 14.1108C29.1524 14.5273 28.8464 14.8503 28.4554 14.8503Z" fill="white"/>
<path d="M28.7274 14.1958C28.7784 14.1788 28.8889 14.1023 28.8889 13.9408C28.8889 13.7453 28.7614 13.6263 28.5489 13.6263H28.0984V14.5868H28.3959V14.2638H28.4724L28.6084 14.5868H28.9314L28.7529 14.2553C28.7359 14.2043 28.7274 14.1958 28.7274 14.1958ZM28.4724 14.0598H28.3959V13.8303H28.4724C28.5404 13.8303 28.5744 13.8643 28.5744 13.9408C28.5829 14.0173 28.5404 14.0598 28.4724 14.0598Z" fill="white"/>
<path d="M7.37511 14.9012C7.79761 14.9012 8.14011 14.5587 8.14011 14.1362C8.14011 13.7137 7.79761 13.3712 7.37511 13.3712C6.95261 13.3712 6.61011 13.7137 6.61011 14.1362C6.61011 14.5587 6.95261 14.9012 7.37511 14.9012Z" fill="white"/>
<path d="M8.17436 15.4028H4.67236V15.1733C4.67236 14.7228 5.12286 14.7143 5.35236 14.7143C5.61586 14.7143 5.73486 14.7398 5.73486 14.7398V13.4988C5.73486 13.4988 5.49686 13.4648 5.17386 13.4648C4.44286 13.4648 3.09136 13.6688 3.09136 15.2158V15.4113H2.45386V16.5588H3.09136V18.9813H2.49636V20.1288H5.36936V18.9813H4.67236V16.5588H6.58486V18.9813H5.98986V20.1288H8.76936V18.9813H8.17436V15.4028ZM14.1244 15.4028H11.6169V16.5503H12.0419L11.4979 18.2503C11.3959 18.5308 11.3704 18.8708 11.3704 18.8708H11.3364C11.3364 18.8708 11.3109 18.5308 11.2089 18.2503L10.6649 16.5503H11.0899V15.4028H8.58236V16.5503H9.10936L10.4184 20.1203H12.2884L13.5974 16.5503H14.1244V15.4028ZM18.7654 17.5703C18.7654 16.2613 17.9749 15.2923 16.5724 15.2923C15.0509 15.2923 14.1159 16.3718 14.1159 17.7573C14.1159 19.0153 15.0254 20.2308 16.7084 20.2308C17.9834 20.2308 18.7399 19.5678 18.7399 19.5678L18.1619 18.4713C18.1619 18.4713 17.5329 18.9218 16.8359 18.9218C16.3344 18.9218 15.8584 18.6583 15.7394 18.0548H18.7314C18.7229 18.0463 18.7654 17.7233 18.7654 17.5703ZM15.7734 17.1793C15.8584 16.8138 16.0794 16.4823 16.5299 16.4823C16.8784 16.4823 17.1249 16.8053 17.1249 17.1793H15.7734ZM25.4719 16.4908H25.4549C25.4549 16.4908 25.4719 16.3973 25.4719 16.2528V16.0063C25.4719 15.5728 25.2339 15.4028 24.8004 15.4028H23.3129V16.5503H23.7549C23.8824 16.5503 23.9589 16.6268 23.9589 16.7543V18.9813H23.3214V20.1288H26.1859V18.9813H25.5484V18.2928C25.5484 17.4343 25.9734 16.8733 26.8489 16.8733C27.0444 16.8733 27.1719 16.8988 27.1719 16.8988V15.3433C27.1719 15.3433 27.0784 15.3263 26.9849 15.3263C26.2709 15.3178 25.6759 15.8448 25.4719 16.4908ZM21.2814 16.4908H21.2644C21.2644 16.4908 21.2814 16.3973 21.2814 16.2528V16.0063C21.2814 15.5728 21.0434 15.4028 20.6099 15.4028H19.1224V16.5503H19.5644C19.6919 16.5503 19.7684 16.6268 19.7684 16.7543V18.9813H19.1309V20.1288H21.9954V18.9813H21.3579V18.2928C21.3579 17.4343 21.7829 16.8733 22.6584 16.8733C22.8539 16.8733 22.9814 16.8988 22.9814 16.8988V15.3433C22.9814 15.3433 22.8879 15.3263 22.7944 15.3263C22.0719 15.3178 21.4769 15.8448 21.2814 16.4908Z" fill="white"/>
</g>
<defs>
<clipPath id="clip0_72_34">
<rect x="0.484375" y="0.28125" width="34" height="34" rx="6" fill="white"/>
</clipPath>
</defs>
</svg>
