<svg width="98" height="69" viewBox="0 0 98 69" fill="none" xmlns="http://www.w3.org/2000/svg">
<path d="M95.6388 11.7652C94.5174 7.63883 92.0588 4.14616 87.8462 3.04766C80.2118 1.04783 48.8833 0.864746 48.8833 0.864746C48.8833 0.864746 17.5549 1.04783 9.92044 3.04766C5.70785 4.14616 3.26368 7.63883 2.12786 11.7652C0.0862648 19.2435 0 34.6647 0 34.6647C0 34.6647 0.0862648 50.086 2.12786 57.5642C3.2493 61.6907 5.70785 65.1833 9.92044 66.2818C17.5549 68.2817 48.8833 68.4647 48.8833 68.4647C48.8833 68.4647 80.2118 68.2817 87.8462 66.2818C92.0588 65.1833 94.5174 61.6907 95.6388 57.5642C97.6804 50.086 97.7667 34.6647 97.7667 34.6647C97.7667 34.6647 97.6804 19.2435 95.6388 11.7652Z" fill="#212121" fill-opacity="0.8"/>
<path d="M64.6987 34.6644L38.8193 20.5811V48.7477" fill="white"/>
</svg>
