<svg width="26" height="27" viewBox="0 0 26 27" fill="none" xmlns="http://www.w3.org/2000/svg">
<g clip-path="url(#clip0_53_1375)">
<path fill-rule="evenodd" clip-rule="evenodd" d="M11.8899 4.29498C11.9533 4.57511 11.9029 4.86895 11.7497 5.11192C11.5965 5.35488 11.3531 5.52708 11.073 5.59064C10.8605 5.63901 10.6498 5.69539 10.4414 5.75964C10.3055 5.80161 10.1626 5.81639 10.021 5.80315C9.87935 5.7899 9.7417 5.74889 9.6159 5.68244C9.49011 5.616 9.37863 5.52543 9.28783 5.4159C9.19704 5.30637 9.12871 5.18004 9.08674 5.0441C9.04477 4.90817 9.02999 4.7653 9.04324 4.62365C9.05648 4.482 9.0975 4.34435 9.16394 4.21855C9.23039 4.09276 9.32096 3.98128 9.43048 3.89049C9.54001 3.79969 9.66635 3.73136 9.80228 3.68939C10.0623 3.6085 10.3259 3.53809 10.5931 3.47814C10.7319 3.44658 10.8755 3.44268 11.0158 3.46665C11.1561 3.49063 11.2903 3.54201 11.4107 3.61787C11.5312 3.69373 11.6355 3.79257 11.7177 3.90875C11.7999 4.02493 11.8584 4.15617 11.8899 4.29498ZM14.1107 4.29498C14.1743 4.01488 14.3465 3.77149 14.5894 3.61832C14.8324 3.46515 15.1262 3.41473 15.4064 3.47814C20.2315 4.57231 23.8347 8.88614 23.8347 14.0428C23.8347 20.0261 18.9835 24.8761 13.0014 24.8761C7.84362 24.8761 3.52978 21.2741 2.43562 16.4489C2.37945 16.1715 2.43405 15.8832 2.58772 15.6456C2.74139 15.408 2.98194 15.2399 3.25792 15.1774C3.5339 15.1148 3.8234 15.1627 4.06451 15.3109C4.30562 15.459 4.4792 15.6956 4.54812 15.9701C4.89285 17.48 5.63589 18.8699 6.69994 19.9953C7.76399 21.1206 9.11016 21.9403 10.5984 22.369C12.0866 22.7977 13.6626 22.8198 15.1622 22.4329C16.6619 22.046 18.0305 21.2644 19.1256 20.1692C20.2208 19.0741 21.0024 17.7055 21.3893 16.2058C21.7762 14.7062 21.7541 13.1303 21.3254 11.642C20.8967 10.1538 20.077 8.8076 18.9517 7.74355C17.8263 6.6795 16.4364 5.93646 14.9264 5.59173C14.6463 5.52793 14.403 5.35547 14.25 5.11229C14.097 4.8691 14.0469 4.57511 14.1107 4.29498ZM7.16545 6.15614C7.26233 6.26046 7.33771 6.38285 7.38726 6.51631C7.43681 6.64977 7.45957 6.79169 7.45424 6.93396C7.44891 7.07623 7.41559 7.21605 7.35618 7.34543C7.29678 7.47481 7.21245 7.59121 7.10803 7.68798C6.9477 7.83603 6.7935 7.98987 6.64545 8.14948C6.44865 8.35425 6.17931 8.47355 5.89542 8.48169C5.61153 8.48983 5.33579 8.38617 5.12758 8.19301C4.91937 7.99985 4.79533 7.73266 4.78219 7.44895C4.76904 7.16525 4.86783 6.88773 5.05728 6.67614C5.24145 6.47681 5.43356 6.28434 5.63362 6.09873C5.73793 6.00184 5.86032 5.92647 5.99378 5.87692C6.12725 5.82736 6.26917 5.8046 6.41143 5.80993C6.5537 5.81527 6.69352 5.84859 6.8229 5.90799C6.95228 5.9674 7.06868 6.05172 7.16545 6.15614ZM13.0003 7.54281C13.2876 7.54281 13.5632 7.65695 13.7663 7.86011C13.9695 8.06328 14.0836 8.33883 14.0836 8.62614V13.5943L17.0162 16.5269C17.2135 16.7312 17.3227 17.0049 17.3203 17.2889C17.3178 17.573 17.2039 17.8447 17.003 18.0455C16.8021 18.2464 16.5304 18.3603 16.2464 18.3628C15.9623 18.3653 15.6887 18.2561 15.4844 18.0587L12.2344 14.8087C12.0312 14.6056 11.917 14.3301 11.9169 14.0428V8.62614C11.9169 8.33883 12.0311 8.06328 12.2343 7.86011C12.4374 7.65695 12.713 7.54281 13.0003 7.54281ZM4.00103 10.1298C4.27554 10.2145 4.50519 10.4047 4.63947 10.6586C4.77376 10.9126 4.80169 11.2094 4.71712 11.484C4.65286 11.6923 4.59649 11.903 4.54812 12.1156C4.4792 12.39 4.30562 12.6266 4.06451 12.7748C3.8234 12.9229 3.5339 12.9708 3.25792 12.9083C2.98194 12.8457 2.74139 12.6776 2.58772 12.44C2.43405 12.2024 2.37945 11.9141 2.43562 11.6367C2.49628 11.3695 2.5667 11.1059 2.64687 10.8459C2.73152 10.5714 2.92173 10.3417 3.17567 10.2075C3.42962 10.0732 3.7265 10.0452 4.00103 10.1298Z" fill="#0568A3"/>
</g>
<defs>
<clipPath id="clip0_53_1375">
<rect width="26" height="26" fill="white" transform="translate(0 0.561523)"/>
</clipPath>
</defs>
</svg>
