<svg width="13" height="11" viewBox="0 0 13 11" fill="none" xmlns="http://www.w3.org/2000/svg">
<path d="M12.3538 5.79434L7.85375 10.2943C7.75993 10.3882 7.63268 10.4409 7.5 10.4409C7.36732 10.4409 7.24007 10.3882 7.14625 10.2943C7.05243 10.2005 6.99972 10.0733 6.99972 9.94059C6.99972 9.8079 7.05243 9.68066 7.14625 9.58684L10.7931 5.94059H1C0.867392 5.94059 0.740215 5.88791 0.646447 5.79414C0.552679 5.70037 0.5 5.57319 0.5 5.44059C0.5 5.30798 0.552679 5.1808 0.646447 5.08703C0.740215 4.99326 0.867392 4.94059 1 4.94059H10.7931L7.14625 1.29434C7.05243 1.20052 6.99972 1.07327 6.99972 0.940586C6.99972 0.807904 7.05243 0.680656 7.14625 0.586836C7.24007 0.493015 7.36732 0.440308 7.5 0.440308C7.63268 0.440308 7.75993 0.493015 7.85375 0.586836L12.3538 5.08684C12.4002 5.13327 12.4371 5.18842 12.4623 5.24912C12.4874 5.30981 12.5004 5.37488 12.5004 5.44059C12.5004 5.50629 12.4874 5.57136 12.4623 5.63206C12.4371 5.69275 12.4002 5.7479 12.3538 5.79434Z" fill="white"/>
</svg>
