<svg width="27" height="27" viewBox="0 0 27 27" fill="none" xmlns="http://www.w3.org/2000/svg">
<g clip-path="url(#clip0_53_973)">
<path d="M5.00655 15.4934L0.483629 18.8149C0.290883 18.9508 0.130269 19.1273 0.0130925 19.332C-0.104085 19.5367 -0.174978 19.7646 -0.1946 19.9997C-0.214221 20.2347 -0.182094 20.4712 -0.100479 20.6925C-0.0188634 20.9138 0.110257 21.1145 0.277796 21.2805L4.0543 25.056C4.21709 25.2342 4.41785 25.3735 4.64174 25.4637C4.86564 25.5539 5.10694 25.5926 5.34781 25.577C5.58868 25.5614 5.82297 25.4919 6.03336 25.3736C6.24374 25.2553 6.42485 25.0912 6.5633 24.8935L9.92813 20.3716M18.9274 11.3171L23.46 7.9967C23.6533 7.86101 23.8144 7.68452 23.9319 7.47972C24.0494 7.27491 24.1205 7.04679 24.1401 6.81149C24.1598 6.57618 24.1275 6.33943 24.0455 6.11798C23.9636 5.89653 23.834 5.69579 23.6659 5.52995L19.8915 1.7112C19.7256 1.53542 19.5222 1.39921 19.2965 1.31267C19.0708 1.22612 18.8285 1.19144 18.5876 1.21121C18.3467 1.23097 18.1133 1.30467 17.9047 1.42685C17.6961 1.54903 17.5176 1.71656 17.3825 1.91703L14.06 6.43778M12.3949 17.4401L17.6512 25.576L18.7335 20.1658L24.1425 19.0846L16.0067 13.8272" stroke="#0568A3" stroke-width="1.5" stroke-linecap="round" stroke-linejoin="round"/>
<path d="M7.91504 13.406C7.91504 14.482 8.34248 15.5139 9.10333 16.2748C9.86418 17.0356 10.8961 17.463 11.9721 17.463C13.0481 17.463 14.0801 17.0356 14.8409 16.2748C15.6018 15.5139 16.0292 14.482 16.0292 13.406C16.0292 12.33 15.6018 11.298 14.8409 10.5372C14.0801 9.77632 13.0481 9.34888 11.9721 9.34888C10.8961 9.34888 9.86418 9.77632 9.10333 10.5372C8.34248 11.298 7.91504 12.33 7.91504 13.406Z" stroke="#0568A3" stroke-width="1.5" stroke-linecap="round" stroke-linejoin="round"/>
</g>
<defs>
<clipPath id="clip0_53_973">
<rect width="26" height="26" fill="white" transform="translate(0.972656 0.392822)"/>
</clipPath>
</defs>
</svg>
