<svg width="60" height="60" viewBox="0 0 60 60" fill="none" xmlns="http://www.w3.org/2000/svg">
<path d="M30.1487 13.5898C39.3196 13.5898 46.7536 21.0239 46.7536 30.1948C46.7536 39.3657 39.3196 46.7997 30.1487 46.7997C27.2142 46.8048 24.3313 46.0282 21.7964 44.5498L13.5504 46.7997L15.7954 38.5504C14.3158 36.0147 13.5386 33.1306 13.5437 30.1948C13.5437 21.0239 20.9778 13.5898 30.1487 13.5898ZM24.4897 22.3905L24.1576 22.4037C23.9429 22.4185 23.7331 22.4749 23.5399 22.5698C23.3599 22.6719 23.1955 22.7994 23.0517 22.9484C22.8525 23.136 22.7395 23.2988 22.6183 23.4565C22.0041 24.255 21.6735 25.2354 21.6785 26.2428C21.6818 27.0564 21.8944 27.8485 22.2264 28.5891C22.9056 30.0869 24.0231 31.6726 25.4976 33.1422C25.853 33.4958 26.2017 33.8512 26.5769 34.1816C28.4092 35.7946 30.5925 36.9579 32.9532 37.579L33.8964 37.7235C34.2036 37.7401 34.5108 37.7168 34.8196 37.7019C35.3032 37.6764 35.7752 37.5455 36.2028 37.3183C36.4201 37.206 36.6323 37.0841 36.8388 36.953C36.8388 36.953 36.9091 36.9054 37.0464 36.8035C37.2705 36.6375 37.4083 36.5196 37.5943 36.3253C37.7338 36.1814 37.85 36.0143 37.943 35.8239C38.0725 35.5532 38.2021 35.0368 38.2552 34.6067C38.295 34.2779 38.2834 34.0986 38.2784 33.9874C38.2718 33.8097 38.124 33.6254 37.963 33.5473L36.9965 33.1139C36.9965 33.1139 35.5519 32.4846 34.6685 32.0828C34.5761 32.0425 34.477 32.0194 34.3763 32.0147C34.2627 32.0028 34.1478 32.0155 34.0395 32.0519C33.9312 32.0882 33.832 32.1475 33.7486 32.2256C33.7403 32.2222 33.6291 32.3169 32.4285 33.7715C32.3596 33.8641 32.2647 33.9341 32.1559 33.9725C32.0471 34.0109 31.9292 34.0161 31.8175 33.9874C31.7092 33.9585 31.6032 33.9219 31.5003 33.8778C31.2944 33.7914 31.223 33.7582 31.0819 33.6984C30.1285 33.2831 29.2461 32.7212 28.4666 32.033C28.2574 31.8503 28.0631 31.651 27.8638 31.4584C27.2106 30.8328 26.6413 30.125 26.1701 29.3529L26.0722 29.1952C26.0028 29.0886 25.946 28.9743 25.9028 28.8548C25.8397 28.6107 26.0041 28.4147 26.0041 28.4147C26.0041 28.4147 26.4076 27.973 26.5952 27.7339C26.7779 27.5015 26.9323 27.2756 27.0319 27.1146C27.2279 26.7991 27.2893 26.4753 27.1863 26.2245C26.7214 25.0888 26.241 23.9591 25.745 22.8355C25.6471 22.613 25.3565 22.4536 25.0925 22.422C25.0028 22.4109 24.9131 22.4021 24.8235 22.3954C24.6005 22.3827 24.3769 22.3849 24.1543 22.4021L24.4897 22.3905Z" fill="#00B22D"/>
</svg>
