<svg width="12" height="11" viewBox="0 0 12 11" fill="none" xmlns="http://www.w3.org/2000/svg">
<path d="M11.8535 5.39092L7.35351 9.89092C7.25969 9.98475 7.13244 10.0375 6.99976 10.0375C6.86707 10.0375 6.73983 9.98475 6.64601 9.89092C6.55219 9.7971 6.49948 9.66986 6.49948 9.53717C6.49948 9.40449 6.55219 9.27724 6.64601 9.18342L10.2929 5.53717H0.499756C0.367148 5.53717 0.239971 5.4845 0.146203 5.39073C0.0524344 5.29696 -0.000244141 5.16978 -0.000244141 5.03717C-0.000244141 4.90457 0.0524344 4.77739 0.146203 4.68362C0.239971 4.58985 0.367148 4.53717 0.499756 4.53717H10.2929L6.64601 0.890924C6.55219 0.797103 6.49948 0.669856 6.49948 0.537174C6.49948 0.404492 6.55219 0.277244 6.64601 0.183424C6.73983 0.0896034 6.86707 0.0368958 6.99976 0.0368958C7.13244 0.0368958 7.25969 0.0896034 7.35351 0.183424L11.8535 4.68342C11.9 4.72986 11.9369 4.785 11.962 4.8457C11.9872 4.9064 12.0001 4.97147 12.0001 5.03717C12.0001 5.10288 11.9872 5.16794 11.962 5.22864C11.9369 5.28934 11.9 5.34449 11.8535 5.39092Z" fill="#0568A3"/>
</svg>
