<svg width="35" height="35" viewBox="0 0 35 35" fill="none" xmlns="http://www.w3.org/2000/svg">
<rect x="0.484375" y="0.28125" width="34" height="34" rx="6" fill="#0568A3"/>
<path d="M7.91086 12.1404C9.25097 12.1404 10.3373 11.0527 10.3373 9.71084C10.3373 8.36901 9.25097 7.28125 7.91086 7.28125C6.57075 7.28125 5.48438 8.36901 5.48438 9.71084C5.48438 11.0527 6.57075 12.1404 7.91086 12.1404Z" fill="white"/>
<path d="M12.5596 13.936H16.5811V15.7806C16.5811 15.7806 17.6723 13.5952 20.6416 13.5952C23.2902 13.5952 25.4844 14.9017 25.4844 18.8839V27.2812H21.317V19.9014C21.317 17.5523 20.0644 17.2939 19.11 17.2939C17.1292 17.2939 16.7901 19.0047 16.7901 20.2079V27.2812H12.5596V13.936Z" fill="white"/>
<path d="M5.79563 13.936H10.0261V27.2812H5.79563V13.936Z" fill="white"/>
</svg>
