<svg width="19" height="19" viewBox="0 0 19 19" fill="none" xmlns="http://www.w3.org/2000/svg">
<g clip-path="url(#clip0_338_4908)">
<path d="M17.0403 9.62332L15.2103 7.53832L15.4653 4.77832L12.7578 4.16332L11.3403 1.77832L8.79028 2.87332L6.24028 1.77832L4.82278 4.16332L2.11528 4.77082L2.37028 7.53082L0.540283 9.62332L2.37028 11.7083L2.11528 14.4758L4.82278 15.0908L6.24028 17.4758L8.79028 16.3733L11.3403 17.4683L12.7578 15.0833L15.4653 14.4683L15.2103 11.7083L17.0403 9.62332ZM7.29028 13.3733L4.29028 10.3733L5.34778 9.31582L7.29028 11.2508L12.2328 6.30832L13.2903 7.37332L7.29028 13.3733Z" fill="#0568A3"/>
</g>
<defs>
<clipPath id="clip0_338_4908">
<rect width="18" height="18" fill="white" transform="translate(0.0532227 0.670898)"/>
</clipPath>
</defs>
</svg>
