<svg width="25" height="25" viewBox="0 0 25 25" fill="none" xmlns="http://www.w3.org/2000/svg">
<path d="M12.9452 0.20166C19.5911 0.20166 24.9783 5.58888 24.9783 12.2348C24.9783 18.8806 19.5911 24.2679 12.9452 24.2679C10.8187 24.2715 8.72953 23.7087 6.89258 22.6374L0.916941 24.2679L2.54382 18.2898C1.47162 16.4523 0.908401 14.3622 0.912128 12.2348C0.912128 5.58888 6.29935 0.20166 12.9452 0.20166ZM8.84435 6.5792L8.60368 6.58883C8.44809 6.59955 8.29606 6.64042 8.15605 6.70916C8.02559 6.78318 7.90644 6.87558 7.80228 6.98352C7.65788 7.11949 7.57606 7.23741 7.48822 7.35173C7.04314 7.9304 6.8035 8.64085 6.80714 9.37088C6.80955 9.9605 6.96357 10.5345 7.20424 11.0712C7.69639 12.1565 8.50622 13.3057 9.57476 14.3706C9.83226 14.6269 10.085 14.8844 10.3569 15.1239C11.6847 16.2928 13.2668 17.1358 14.9776 17.5859L15.6611 17.6906C15.8837 17.7026 16.1063 17.6858 16.3301 17.6749C16.6805 17.6564 17.0226 17.5616 17.3325 17.397C17.4899 17.3155 17.6437 17.2272 17.7934 17.1322C17.7934 17.1322 17.8443 17.0977 17.9438 17.0239C18.1062 16.9036 18.2061 16.8182 18.3409 16.6774C18.4419 16.5731 18.5262 16.452 18.5936 16.314C18.6874 16.1178 18.7813 15.7436 18.8198 15.432C18.8487 15.1937 18.8402 15.0637 18.8366 14.9831C18.8318 14.8544 18.7247 14.7208 18.608 14.6642L17.9077 14.3502C17.9077 14.3502 16.8608 13.8941 16.2206 13.6029C16.1536 13.5738 16.0819 13.557 16.0089 13.5536C15.9265 13.545 15.8433 13.5542 15.7648 13.5805C15.6863 13.6069 15.6144 13.6498 15.554 13.7064C15.548 13.704 15.4674 13.7726 14.5974 14.8267C14.5474 14.8938 14.4787 14.9445 14.3998 14.9724C14.3209 15.0002 14.2356 15.004 14.1546 14.9831C14.0761 14.9622 13.9993 14.9357 13.9247 14.9037C13.7755 14.8411 13.7238 14.8171 13.6215 14.7737C12.9306 14.4728 12.2912 14.0656 11.7263 13.5668C11.5747 13.4345 11.4339 13.2901 11.2895 13.1505C10.8161 12.6971 10.4035 12.1842 10.0621 11.6247L9.9911 11.5104C9.94088 11.4331 9.8997 11.3503 9.86836 11.2637C9.82264 11.0868 9.94177 10.9448 9.94177 10.9448C9.94177 10.9448 10.2342 10.6247 10.3701 10.4515C10.5025 10.283 10.6144 10.1193 10.6866 10.0026C10.8286 9.77399 10.8731 9.53935 10.7985 9.35765C10.4616 8.53458 10.1134 7.71593 9.75405 6.90169C9.68305 6.74045 9.47248 6.62493 9.28115 6.60207C9.21617 6.59404 9.15119 6.58763 9.08621 6.58281C8.92464 6.57355 8.76263 6.57515 8.60128 6.58763L8.84435 6.5792Z" fill="#00B22D"/>
</svg>
